<svg xmlns="http://www.w3.org/2000/svg" width="28" height="28" viewBox="0 0 28 28">
  <metadata><?xpacket begin="﻿" id="W5M0MpCehiHzreSzNTczkc9d"?>
<x:xmpmeta xmlns:x="adobe:ns:meta/" x:xmptk="Adobe XMP Core 5.6-c138 79.159824, 2016/09/14-01:09:01        ">
   <rdf:RDF xmlns:rdf="http://www.w3.org/1999/02/22-rdf-syntax-ns#">
      <rdf:Description rdf:about=""/>
   </rdf:RDF>
</x:xmpmeta>
                                                                                                    
                                                                                                    
                                                                                                    
                                                                                                    
                                                                                                    
                                                                                                    
                                                                                                    
                                                                                                    
                                                                                                    
                                                                                                    
                                                                                                    
                                                                                                    
                                                                                                    
                                                                                                    
                                                                                                    
                                                                                                    
                                                                                                    
                                                                                                    
                                                                                                    
                                                                                                    
                           
<?xpacket end="w"?></metadata>
<defs>
    <style>
      .cls-1 {
        fill: #3f88b8;
        fill-rule: evenodd;
      }
    </style>
  </defs>
  <path id="calendar" class="cls-1" d="M2748.67,2433.63h-3.8v-1.75a0.875,0.875,0,1,0-1.75,0v1.75h-5.24v-1.75a0.875,0.875,0,1,0-1.75,0v1.75h-5.25v-1.75a0.88,0.88,0,0,0-1.76,0v1.75h-3.79a2.326,2.326,0,0,0-2.33,2.33v20.71a2.326,2.326,0,0,0,2.33,2.33h23.34a2.326,2.326,0,0,0,2.33-2.33v-20.71A2.326,2.326,0,0,0,2748.67,2433.63Zm0.58,23.04a0.58,0.58,0,0,1-.58.58h-23.34a0.58,0.58,0,0,1-.58-0.58v-20.71a0.589,0.589,0,0,1,.58-0.59h3.79v1.75a0.88,0.88,0,0,0,1.76,0v-1.75h5.25v1.75a0.875,0.875,0,1,0,1.75,0v-1.75h5.24v1.75a0.875,0.875,0,1,0,1.75,0v-1.75h3.8a0.589,0.589,0,0,1,.58.59v20.71Zm-20.13-12.54h3.5v-2.63h-3.5v2.63Zm0,4.37h3.5v-2.63h-3.5v2.63Zm0,4.37h3.5v-2.62h-3.5v2.62Zm6.13,0h3.5v-2.62h-3.5v2.62Zm0-4.37h3.5v-2.63h-3.5v2.63Zm0-4.37h3.5v-2.63h-3.5v2.63Zm6.13,8.74h3.49v-2.62h-3.49v2.62Zm0-4.37h3.49v-2.63h-3.49v2.63Zm0-4.37h3.49v-2.63h-3.49v2.63Z" transform="translate(-2723 -2431)"/>
</svg>
